<svg width="1200" height="900" viewBox="0 0 1200 900" fill="none" xmlns="http://www.w3.org/2000/svg">
  <defs>
    <linearGradient id="bg" x1="120" y1="80" x2="1080" y2="820" gradientUnits="userSpaceOnUse">
      <stop stop-color="#F8FAFF"/>
      <stop offset="1" stop-color="#EDF2FF"/>
    </linearGradient>
    <linearGradient id="accent" x1="220" y1="180" x2="980" y2="720" gradientUnits="userSpaceOnUse">
      <stop stop-color="#5EF3FF"/>
      <stop offset="0.5" stop-color="#4B88FF"/>
      <stop offset="1" stop-color="#845DFF"/>
    </linearGradient>
  </defs>
  <rect width="1200" height="900" rx="48" fill="url(#bg)"/>
  <circle cx="255" cy="210" r="150" fill="#5EF3FF" fill-opacity=".08"/>
  <circle cx="960" cy="678" r="184" fill="#845DFF" fill-opacity=".08"/>
  <rect x="150" y="160" width="900" height="580" rx="40" fill="#FFFFFF" stroke="#FFFFFF"/>
  <circle cx="400" cy="392" r="94" fill="#F4F7FE" stroke="#E5ECF8"/>
  <circle cx="800" cy="392" r="94" fill="#F4F7FE" stroke="#E5ECF8"/>
  <path d="M508 392h140" stroke="url(#accent)" stroke-width="12" stroke-linecap="round"/>
  <path d="M608 362l40 30-40 30" stroke="url(#accent)" stroke-width="10" stroke-linecap="round" stroke-linejoin="round"/>
  <circle cx="400" cy="366" r="26" fill="url(#accent)" fill-opacity=".16"/>
  <circle cx="800" cy="366" r="26" fill="url(#accent)" fill-opacity=".16"/>
  <path d="M381 380c7-16 25-26 44-26s37 10 44 26" stroke="url(#accent)" stroke-width="8" stroke-linecap="round"/>
  <path d="M781 380c7-16 25-26 44-26s37 10 44 26" stroke="url(#accent)" stroke-width="8" stroke-linecap="round"/>
  <rect x="280" y="520" width="210" height="140" rx="26" fill="#F8FAFF" stroke="#E6EDF9"/>
  <rect x="710" y="520" width="210" height="140" rx="26" fill="#F8FAFF" stroke="#E6EDF9"/>
  <rect x="318" y="560" width="134" height="14" rx="7" fill="#D7E0F2"/>
  <rect x="318" y="588" width="156" height="14" rx="7" fill="#E3EAF7"/>
  <rect x="318" y="616" width="98" height="14" rx="7" fill="#E3EAF7"/>
  <rect x="748" y="560" width="134" height="14" rx="7" fill="#D7E0F2"/>
  <rect x="748" y="588" width="156" height="14" rx="7" fill="#E3EAF7"/>
  <rect x="748" y="616" width="118" height="14" rx="7" fill="#E3EAF7"/>
  <circle cx="605" cy="392" r="18" fill="url(#accent)"/>
  <circle cx="605" cy="392" r="40" fill="url(#accent)" fill-opacity=".12"/>
</svg>
